<svg xmlns="http://www.w3.org/2000/svg" xmlns:xlink="http://www.w3.org/1999/xlink" id="Layer_1" x="0px" y="0px" viewBox="0 0 198 55" style="enable-background:new 0 0 198 55;" xml:space="preserve"><style type="text/css">	.st0{fill:#6F9934;}	.st1{fill:#0096A5;}	.st2{fill:#007A82;}	.st3{fill:#84C346;}</style><g>	<path class="st0" d="M71.8,16.8c-1.6,0-3,0.1-3,0.1v-0.5l0.8-0.1c0.4-0.1,0.6-0.3,0.6-0.7c0-0.4-0.1-0.9-0.4-1.7l-1.2-3.1h-5.3  l-1.3,3.5c-0.2,0.6-0.3,1-0.3,1.3c0,0.4,0.2,0.6,0.5,0.6l1.1,0.1v0.5c0,0-1.1-0.1-2.4-0.1c-1.3,0-2.3,0.1-2.3,0.1v-0.5l0.9-0.2  c0.3,0,0.5-0.1,0.8-0.3c0.2-0.2,0.4-0.6,0.8-1.5l5.6-13.4h0.6l5.4,13.3c0.7,1.7,1.2,1.7,1.6,1.8l0.7,0.2v0.5  C74.7,16.9,73.3,16.8,71.8,16.8 M63.5,10.2h4.9L66,4L63.5,10.2z"></path>	<path class="st1" d="M79,17.1c-0.9,0-1.3-0.3-1.7-0.5c-0.3-0.2-0.7-0.5-0.8-0.5c-0.1,0-0.2,0.1-0.4,0.5h-0.3v-3h0.4  c0.2,1,0.4,1.6,1,2.2c0.4,0.4,1.2,0.7,1.9,0.7c1.4,0,2.4-1,2.4-2.2c0-1.3-0.8-2-1.9-2.5l-1.9-1c-1.1-0.6-1.8-1.6-1.8-3  c0-1.8,1.4-2.7,3.3-2.7c0.7,0,1.4,0.2,1.6,0.3c0.3,0.2,0.7,0.5,0.8,0.5c0.2,0,0.3-0.2,0.4-0.5h0.3v2.9h-0.4c-0.2-1-0.4-1.5-1-2  c-0.4-0.4-1-0.6-1.7-0.6c-1.2,0-2,0.5-2,1.6c0,0.9,0.6,1.4,1.5,1.9l2,1c1,0.5,2.2,1.6,2.2,3.5C82.8,15.9,81.1,17.1,79,17.1"></path>	<path class="st1" d="M88.1,17.1c-0.9,0-1.3-0.3-1.7-0.5c-0.3-0.2-0.7-0.5-0.8-0.5c-0.1,0-0.2,0.1-0.4,0.5h-0.3v-3h0.4  c0.2,1,0.4,1.6,1,2.2c0.4,0.4,1.2,0.7,1.9,0.7c1.4,0,2.4-1,2.4-2.2c0-1.3-0.8-2-1.9-2.5l-1.9-1c-1.1-0.6-1.8-1.6-1.8-3  c0-1.8,1.4-2.7,3.3-2.7c0.7,0,1.4,0.2,1.6,0.3c0.3,0.2,0.7,0.5,0.8,0.5c0.2,0,0.3-0.2,0.4-0.5h0.3v2.9h-0.4c-0.2-1-0.4-1.5-1-2  c-0.4-0.4-1-0.6-1.7-0.6c-1.2,0-2,0.5-2,1.6c0,0.9,0.6,1.4,1.5,1.9l2,1c1,0.5,2.2,1.6,2.2,3.5C91.9,15.9,90.2,17.1,88.1,17.1"></path>	<path class="st1" d="M93.5,11.1c0-3.4,2.2-6,5.9-6c3.7,0,6,2.7,6,6c0,3.4-2.3,6-6,6C95.7,17.1,93.5,14.5,93.5,11.1 M99.4,16.7  c3.1,0,3.9-2.9,3.9-5.6c0-2.6-1-5.6-3.9-5.6c-3,0-3.9,3-3.9,5.6C95.5,13.7,96.3,16.7,99.4,16.7"></path>	<path class="st1" d="M112.8,5c1,0,2.3,0.2,3.2,0.7c0.3,0.2,0.6,0.3,0.8,0.3c0.2,0,0.2-0.2,0.4-0.5h0.4v3.6h-0.4  c-0.2-1-0.6-2-1.2-2.6c-0.7-0.7-1.8-1-3-1c-2.9,0-4.1,2.6-4.1,5.1c0,2.6,1.1,5.8,4,5.8c1,0,2.4-0.4,3.1-1.1c0.6-0.6,1-1.6,1.2-2.7  h0.4v3.7h-0.4c-0.2-0.4-0.2-0.6-0.4-0.6c-0.2,0-0.5,0.1-0.7,0.3c-0.9,0.6-2.3,1-3.3,1c-3.7,0-5.8-2.6-5.8-6.3  C106.9,7.6,109.2,5,112.8,5"></path>	<path class="st1" d="M123.2,5.9c-0.7,0.1-0.7,0.4-0.7,1v7.7c0,0.7-0.1,1.6,0.8,1.8l0.8,0.1v0.4c0,0-1.3-0.1-2.5-0.1  c-1.1,0-2.4,0.1-2.4,0.1v-0.4l0.9-0.1c0.8-0.1,0.7-1.1,0.7-1.8V6.9c0-0.6,0-0.9-0.7-1l-0.8-0.1V5.4h4.9v0.3L123.2,5.9z"></path>	<path class="st1" d="M134.8,16.8c-1.2,0-2.2,0.1-2.2,0.1v-0.4l0.6-0.1c0.3-0.1,0.4-0.2,0.4-0.5c0-0.3-0.1-0.7-0.3-1.2l-0.9-2.3  h-3.9l-1,2.5c-0.2,0.4-0.2,0.7-0.2,1c0,0.3,0.1,0.4,0.4,0.4l0.8,0.1v0.4c0,0-0.8-0.1-1.7-0.1c-0.9,0-1.7,0.1-1.7,0.1v-0.4l0.7-0.1  c0.2,0,0.4-0.1,0.5-0.2c0.2-0.2,0.3-0.5,0.6-1.1l4-9.8h0.5l3.9,9.7c0.5,1.2,0.9,1.3,1.1,1.3l0.5,0.1v0.4  C136.9,16.8,135.9,16.8,134.8,16.8 M128.7,11.9h3.6l-1.7-4.5L128.7,11.9z"></path>	<path class="st1" d="M140.6,5.8c0,0-2.1,0-2.6,0.1c-0.6,0.1-1,0.2-1.2,0.7l-0.3,1h-0.4l0.1-2.2h10.5l0.1,2.2h-0.4l-0.3-1  c-0.2-0.5-0.6-0.7-1.2-0.8c-0.5-0.1-2.6-0.1-2.6-0.1v8.7c0,0.6-0.1,1.7,0.8,1.8l0.8,0.1v0.4c0,0-1.2-0.1-2.4-0.1  c-1.1,0-2.5,0.1-2.5,0.1v-0.4l0.8-0.1c0.8-0.1,0.7-1.2,0.7-1.8V5.8z"></path>	<path class="st1" d="M156.6,7.6h-0.4l-0.3-1c-0.2-0.5-0.7-0.7-1.3-0.7h-3.2c-0.2,0-0.3,0.1-0.3,0.4v3.9h2c0.5,0,0.9-0.2,1.1-0.7  l0.3-0.9h0.4v3.7h-0.4l-0.3-1c-0.1-0.3-0.4-0.6-1.1-0.6h-2v3.9c0,1.6,0.3,1.5,1,1.7c0.4,0.1,0.9,0.1,1.3,0.1c0.6,0,0.9,0,1.5-0.1  c0.6-0.1,1.1-0.3,1.5-1l0.7-1.5h0.4l-0.2,3c0,0-2-0.1-4.5-0.1c-2.7,0-5,0.1-5,0.1v-0.4l0.7-0.1c0.7-0.1,0.9-0.5,0.9-1.4V6.7  c0-0.5-0.2-0.8-0.7-0.8L148,5.7V5.4h8.4L156.6,7.6z"></path>	<path class="st1" d="M164.5,16.9c-0.2,0-0.9,0-1.5,0c0,0-0.9-0.1-2.2-0.1c-1.2,0-2.3,0.1-2.3,0.1v-0.4l0.8-0.2  c0.7-0.1,0.7-0.6,0.7-1.6V6.6c0-0.4-0.1-0.6-0.5-0.7l-0.9-0.1V5.4h5.5c3.9,0,6,2.5,6,5.7C170.2,15.6,167.7,16.9,164.5,16.9   M163.9,5.9h-1.7c-0.2,0-0.4,0.1-0.4,0.4v8.1c0,1.8,0.7,1.8,1.3,2c0.4,0.1,0.9,0.1,1.3,0.1c2.8,0,3.9-2.2,3.9-5.3  C168.3,8.1,166.5,5.9,163.9,5.9"></path>	<path class="st0" d="M62.4,34.3l1.1,0.2v0.5c0,0-1.2-0.1-2.5-0.1c-1.3,0-2.6,0.1-2.6,0.1v-0.5l1.2-0.2c0.6-0.1,0.9-0.6,0.9-2.2  v-9.9c0-1-0.5-1.6-1.1-1.7l-0.9-0.2v-0.4H63l5.6,12l5.6-12h4.2v0.4l-0.9,0.2c-0.9,0.2-1.1,0.5-1.1,1.3v9.8c0,0.9,0,2.7,1,2.8  l1.1,0.1v0.5c0,0-1.6-0.1-3.2-0.1c-1.6,0-3.1,0.1-3.1,0.1v-0.5l1-0.2c1-0.2,0.9-1.1,0.9-3.2v-9h-0.1l-6,12.5h-0.7l-5.9-12.1h0v9.4  C61.5,33.5,61.6,34.1,62.4,34.3"></path>	<path class="st1" d="M89.1,25.7h-0.4l-0.3-1c-0.2-0.5-0.7-0.7-1.3-0.7h-3.2c-0.2,0-0.3,0.1-0.3,0.4v3.9h2c0.5,0,0.9-0.2,1.1-0.7  l0.3-0.9h0.4v3.7H87l-0.3-1c-0.1-0.3-0.4-0.6-1.1-0.6h-2v3.9c0,1.6,0.3,1.5,1,1.7c0.4,0.1,0.9,0.1,1.3,0.1c0.6,0,0.9,0,1.5-0.1  c0.6-0.1,1.1-0.3,1.5-1l0.7-1.5H90l-0.2,3c0,0-2-0.1-4.5-0.1c-2.7,0-5,0.1-5,0.1v-0.4l0.7-0.1c0.7-0.1,0.9-0.5,0.9-1.4v-8.3  c0-0.5-0.2-0.8-0.7-0.8l-0.7-0.1v-0.3h8.4L89.1,25.7z"></path>	<path class="st1" d="M97,35c-0.2,0-0.9,0-1.5,0c0,0-0.9-0.1-2.2-0.1c-1.2,0-2.3,0.1-2.3,0.1v-0.4l0.8-0.2c0.7-0.1,0.7-0.6,0.7-1.6  v-8.1c0-0.4-0.1-0.6-0.5-0.7l-0.9-0.1v-0.3h5.5c3.9,0,6,2.5,6,5.7C102.7,33.8,100.2,35,97,35 M96.4,24h-1.7c-0.2,0-0.4,0.1-0.4,0.4  v8.1c0,1.8,0.7,1.8,1.3,2c0.4,0.1,0.9,0.1,1.3,0.1c2.8,0,3.9-2.2,3.9-5.3C100.8,26.2,99,24,96.4,24"></path>	<path class="st1" d="M107.8,24c-0.7,0.1-0.7,0.4-0.7,1v7.7c0,0.7-0.1,1.6,0.8,1.8l0.8,0.1v0.4c0,0-1.3-0.1-2.5-0.1  c-1.1,0-2.4,0.1-2.4,0.1v-0.4l0.9-0.1c0.8-0.1,0.7-1.1,0.7-1.8V25c0-0.6,0-0.9-0.7-1l-0.8-0.1v-0.3h4.9v0.3L107.8,24z"></path>	<path class="st1" d="M116.2,23.2c1,0,2.3,0.2,3.2,0.7c0.3,0.2,0.6,0.3,0.8,0.3c0.2,0,0.2-0.2,0.4-0.5h0.4v3.6h-0.4  c-0.2-1-0.6-2-1.2-2.6c-0.7-0.7-1.8-1-3-1c-2.9,0-4.1,2.6-4.1,5.1c0,2.6,1.1,5.8,4,5.8c1,0,2.4-0.4,3.1-1.1c0.6-0.6,1-1.6,1.2-2.7  h0.4v3.7h-0.4c-0.2-0.4-0.2-0.6-0.4-0.6c-0.2,0-0.5,0.1-0.7,0.3c-0.9,0.6-2.3,1-3.3,1c-3.7,0-5.8-2.6-5.8-6.3  C110.3,25.7,112.6,23.2,116.2,23.2"></path>	<path class="st1" d="M131.6,34.9c-1.2,0-2.2,0.1-2.2,0.1v-0.4l0.6-0.1c0.3-0.1,0.4-0.2,0.4-0.5c0-0.3-0.1-0.7-0.3-1.2l-0.9-2.3  h-3.9l-1,2.5c-0.2,0.4-0.2,0.7-0.2,1c0,0.3,0.1,0.4,0.4,0.4l0.8,0.1v0.4c0,0-0.8-0.1-1.7-0.1c-0.9,0-1.7,0.1-1.7,0.1v-0.4l0.7-0.1  c0.2,0,0.4-0.1,0.5-0.2c0.2-0.2,0.3-0.5,0.6-1.1l4-9.8h0.5l3.9,9.7c0.5,1.2,0.9,1.3,1.1,1.3l0.5,0.1v0.4  C133.8,34.9,132.7,34.9,131.6,34.9 M125.6,30h3.6l-1.7-4.5L125.6,30z"></path>	<path class="st1" d="M138.6,24c-0.7,0.1-0.7,0.4-0.7,1v6.5c0,1.9,0.1,2.8,0.9,2.9c0.4,0.1,0.8,0.1,1.2,0.1c0.6,0,1,0,1.6-0.1  c0.5-0.1,1.2-0.2,1.5-0.9l0.7-1.5h0.3l-0.2,3c0,0-1.8-0.1-4.4-0.1c-2.6,0-4.8,0.1-4.8,0.1v-0.4l0.7-0.1c0.7-0.1,0.7-0.5,0.7-1.4  v-8.1c0-0.6,0-0.8-0.7-1l-0.6-0.1v-0.3h4.3v0.3L138.6,24z"></path>	<path class="st0" d="M62.8,50.4c0,1.2,0.3,1.8,1.2,2l0.9,0.1V53c0,0-1.7-0.1-3.3-0.1c-1.5,0-3.3,0.1-3.3,0.1v-0.5l0.9-0.1  c0.9-0.1,1.1-0.8,1.1-2V39c0-0.5-0.1-0.9-0.7-1l-1.2-0.2v-0.4H66c3.5,0,4.7,1.7,4.7,3.8c0,1.7-1.2,4.1-4.4,4.1h-3.5V50.4z M63.3,38  c-0.3,0-0.5,0.1-0.5,0.5v6c0,0.2,0.2,0.2,0.3,0.2h2.4c2.1,0,2.9-2.3,2.9-3.5c0-1.5-0.9-3.2-3.1-3.2H63.3z"></path>	<path class="st1" d="M75.1,51.1c0,0.9,0.2,1.4,0.9,1.4l0.7,0.1V53c0,0-1.1-0.1-2.4-0.1c-1.3,0-2.4,0.1-2.4,0.1v-0.4l0.7-0.1  c0.7-0.1,0.8-0.6,0.8-1.4v-8.3c0-0.4-0.1-0.6-0.5-0.7L71.9,42v-0.3h5.5c2.4,0,3.4,1.1,3.4,2.6c0,1.2-0.8,2.8-3.2,2.8l0,0  c1,0.4,1.6,1.1,1.8,1.5c0.4,0.7,1.2,2,1.7,2.8c0.4,0.5,0.7,1,1.1,1l0.7,0.1V53c0,0-0.8-0.1-1.4-0.1c-0.5,0-1.4,0.1-1.4,0.1  c-0.6-0.9-1.8-2.9-2.5-4c-0.4-0.7-1.1-1.9-2-1.9h-0.5L75.1,51.1z M75.4,42.1c-0.2,0-0.4,0.1-0.4,0.4v4.1c0,0.1,0.1,0.1,0.2,0.1H77  c1.4,0,2-1.4,2-2.3c0-1.1-0.6-2.3-2.2-2.3H75.4z"></path>	<path class="st1" d="M82.7,47.3c0-3.4,2.2-6,5.9-6c3.7,0,6,2.7,6,6c0,3.4-2.3,6-6,6C84.9,53.3,82.7,50.7,82.7,47.3 M88.6,52.9  c3.1,0,3.9-2.9,3.9-5.6c0-2.6-1-5.6-3.9-5.6c-3,0-3.9,3-3.9,5.6C84.7,49.9,85.5,52.9,88.6,52.9"></path>	<path class="st1" d="M98.8,42.5v4h2c0.5,0,0.9-0.2,1.1-0.7l0.3-0.9h0.4v3.7h-0.4l-0.3-1c-0.1-0.3-0.4-0.6-1.1-0.6h-2v4.2  c0,0.9,0.2,1.3,0.9,1.4l0.5,0.1V53c0,0-1-0.1-2.3-0.1c-1.4,0-2.4,0.1-2.4,0.1v-0.4l0.7-0.1c0.7-0.1,0.8-0.5,0.8-1.4v-8.3  c0-0.5-0.2-0.8-0.7-0.8l-0.7-0.1v-0.3h8.4l0.2,2.2H104l-0.3-1c-0.2-0.5-0.7-0.7-1.3-0.7h-3.2C99,42.1,98.8,42.2,98.8,42.5"></path>	<path class="st1" d="M114.3,43.8h-0.4l-0.3-1c-0.2-0.5-0.7-0.7-1.3-0.7h-3.2c-0.2,0-0.3,0.1-0.3,0.4v3.9h2c0.5,0,0.9-0.2,1.1-0.7  l0.3-0.9h0.4v3.7h-0.4l-0.3-1c-0.1-0.3-0.4-0.6-1.1-0.6h-2v3.9c0,1.6,0.3,1.5,1,1.7c0.4,0.1,0.9,0.1,1.3,0.1c0.6,0,0.9,0,1.5-0.1  c0.6-0.1,1.1-0.3,1.5-1l0.7-1.5h0.4l-0.2,3c0,0-2-0.1-4.5-0.1c-2.7,0-5,0.1-5,0.1v-0.4l0.7-0.1c0.7-0.1,0.9-0.5,0.9-1.4v-8.3  c0-0.5-0.2-0.8-0.7-0.8l-0.7-0.1v-0.3h8.4L114.3,43.8z"></path>	<path class="st1" d="M120.4,53.3c-0.9,0-1.3-0.3-1.7-0.5c-0.3-0.2-0.7-0.5-0.8-0.5c-0.1,0-0.2,0.1-0.4,0.5h-0.3v-3h0.4  c0.2,1,0.4,1.6,1,2.2c0.4,0.4,1.2,0.7,1.9,0.7c1.4,0,2.4-1,2.4-2.2c0-1.3-0.8-2-1.9-2.5l-1.9-1c-1.1-0.6-1.8-1.6-1.8-3  c0-1.8,1.4-2.7,3.3-2.7c0.7,0,1.4,0.2,1.6,0.3c0.3,0.2,0.7,0.5,0.8,0.5c0.2,0,0.3-0.2,0.4-0.5h0.3v2.9h-0.4c-0.2-1-0.4-1.5-1-2  c-0.4-0.4-1-0.6-1.7-0.6c-1.2,0-2,0.5-2,1.6c0,0.9,0.6,1.4,1.5,1.9l2,1c1,0.5,2.2,1.6,2.2,3.5C124.2,52.1,122.6,53.3,120.4,53.3"></path>	<path class="st1" d="M129.5,53.3c-0.9,0-1.3-0.3-1.7-0.5c-0.3-0.2-0.7-0.5-0.8-0.5c-0.1,0-0.2,0.1-0.4,0.5h-0.3v-3h0.4  c0.2,1,0.4,1.6,1,2.2c0.4,0.4,1.2,0.7,1.9,0.7c1.4,0,2.4-1,2.4-2.2c0-1.3-0.8-2-1.9-2.5l-1.9-1c-1.1-0.6-1.8-1.6-1.8-3  c0-1.8,1.4-2.7,3.3-2.7c0.7,0,1.4,0.2,1.6,0.3c0.3,0.2,0.7,0.5,0.8,0.5c0.2,0,0.3-0.2,0.4-0.5h0.3v2.9h-0.4c-0.2-1-0.4-1.5-1-2  c-0.4-0.4-1-0.6-1.7-0.6c-1.2,0-2,0.5-2,1.6c0,0.9,0.6,1.4,1.5,1.9l2,1c1,0.5,2.2,1.6,2.2,3.5C133.3,52.1,131.7,53.3,129.5,53.3"></path>	<path class="st1" d="M138.9,42.1c-0.7,0.1-0.7,0.4-0.7,1v7.7c0,0.7-0.1,1.6,0.8,1.8l0.8,0.1V53c0,0-1.3-0.1-2.5-0.1  c-1.1,0-2.4,0.1-2.4,0.1v-0.4l0.9-0.1c0.8-0.1,0.7-1.1,0.7-1.8v-7.7c0-0.6,0-0.9-0.7-1l-0.8-0.1v-0.3h4.9V42L138.9,42.1z"></path>	<path class="st1" d="M141.3,47.3c0-3.4,2.2-6,5.9-6c3.7,0,6,2.7,6,6c0,3.4-2.3,6-6,6C143.5,53.3,141.3,50.7,141.3,47.3 M147.2,52.9  c3.1,0,3.9-2.9,3.9-5.6c0-2.6-1-5.6-3.9-5.6c-3,0-3.9,3-3.9,5.6C143.3,49.9,144.1,52.9,147.2,52.9"></path>	<path class="st1" d="M155.7,42.7c-0.3-0.4-0.5-0.6-1-0.6l-0.5-0.1v-0.3h3.2l7.1,8.1v-5.8c0-1.4-0.2-1.7-1.1-1.9l-0.6-0.1v-0.3h3.9  V42l-0.6,0.1c-1,0.2-1,0.5-1,1.9V53h-0.3l-8.5-9.9v7.6c0,1.3,0.1,1.8,0.7,1.9l0.8,0.1V53c0,0-0.9-0.1-1.9-0.1c-1,0-1.9,0.1-1.9,0.1  v-0.4l0.9-0.1c0.5-0.1,0.7-0.4,0.7-1.7V42.7L155.7,42.7z"></path>	<path class="st1" d="M175.9,53c-1.2,0-2.2,0.1-2.2,0.1v-0.4l0.6-0.1c0.3-0.1,0.4-0.2,0.4-0.5c0-0.3-0.1-0.7-0.3-1.2l-0.9-2.3h-3.9  l-1,2.5c-0.2,0.4-0.2,0.7-0.2,1c0,0.3,0.1,0.4,0.4,0.4l0.8,0.1V53c0,0-0.8-0.1-1.7-0.1c-0.9,0-1.7,0.1-1.7,0.1v-0.4l0.7-0.1  c0.2,0,0.4-0.1,0.5-0.2c0.2-0.2,0.3-0.5,0.6-1.1l4-9.8h0.5l3.9,9.7c0.5,1.2,0.9,1.3,1.1,1.3l0.5,0.1V53C178.1,53,177.1,53,175.9,53   M169.9,48.2h3.6l-1.7-4.5L169.9,48.2z"></path>	<path class="st1" d="M183,42.1c-0.7,0.1-0.7,0.4-0.7,1v6.5c0,1.9,0.1,2.8,0.9,2.9c0.4,0.1,0.8,0.1,1.2,0.1c0.6,0,1,0,1.6-0.1  c0.5-0.1,1.2-0.2,1.5-0.9l0.7-1.5h0.3l-0.2,3c0,0-1.8-0.1-4.4-0.1c-2.6,0-4.8,0.1-4.8,0.1v-0.4l0.7-0.1c0.7-0.1,0.7-0.5,0.7-1.4V43  c0-0.6,0-0.8-0.7-1l-0.6-0.1v-0.3h4.3v0.3L183,42.1z"></path>	<path class="st1" d="M193.3,53.3c-0.9,0-1.3-0.3-1.7-0.5c-0.3-0.2-0.7-0.5-0.8-0.5c-0.1,0-0.2,0.1-0.4,0.5h-0.3v-3h0.4  c0.2,1,0.4,1.6,1,2.2c0.4,0.4,1.2,0.7,1.9,0.7c1.4,0,2.4-1,2.4-2.2c0-1.3-0.8-2-1.9-2.5l-1.9-1c-1.1-0.6-1.8-1.6-1.8-3  c0-1.8,1.4-2.7,3.3-2.7c0.7,0,1.4,0.2,1.6,0.3c0.3,0.2,0.7,0.5,0.8,0.5c0.2,0,0.3-0.2,0.4-0.5h0.3v2.9h-0.4c-0.2-1-0.4-1.5-1-2  c-0.4-0.4-1-0.6-1.7-0.6c-1.2,0-2,0.5-2,1.6c0,0.9,0.6,1.4,1.5,1.9l2,1c1,0.5,2.2,1.6,2.2,3.5C197.1,52.1,195.5,53.3,193.3,53.3"></path>	<path class="st0" d="M36.9,36c-1.7-1.6-3.1-3-4.3-4.1c-0.2,0.2-0.3,0.3-0.5,0.5c1.1,1.2,2.5,2.6,4.1,4.4c5.1,5.5,9.5,10.7,10.4,9.9  C47.1,46.1,42.1,40.9,36.9,36 M30.6,33.4c-0.2,0.1-0.4,0.2-0.6,0.3c0.6,1.5,1.4,3.3,2.3,5.4c2.9,6.9,5.3,13.3,6.4,12.9  c0.7-0.3-2.2-6.9-5.4-13.3C32.2,36.7,31.4,34.9,30.6,33.4 M29.5,33.9C29.3,34,29,34,28.8,34.1c0.4,1.6,0.8,3.5,1.3,5.7  c1.7,7.3,2.9,14,4.1,13.8c0.8-0.2-1-7.2-3-14C30.5,37.4,29.9,35.5,29.5,33.9 M28.3,34.2c-0.2,0-0.5,0.1-0.7,0.1  c0.1,1.6,0.2,3.6,0.3,5.9c0.4,7.5,0.4,14.3,1.6,14.3c0.8,0,0.3-7.3-0.6-14.4C28.7,37.8,28.5,35.8,28.3,34.2 M31.6,32.7  c-0.2,0.1-0.4,0.3-0.6,0.4c0.9,1.4,2,3,3.2,5c4.1,6.3,7.5,12.2,8.6,11.5c0.7-0.4-3.4-6.4-7.7-12.2C33.8,35.7,32.6,34.1,31.6,32.7   M38.3,34.2c-2-1.3-3.6-2.4-5-3.3c-0.1,0.2-0.3,0.4-0.4,0.6c1.3,1,2.9,2.2,4.8,3.6c6,4.5,11.2,8.9,12,7.9  C50.1,42.3,44.3,38.1,38.3,34.2 M40.4,27.8c-2.4-0.1-4.4-0.3-6.1-0.4c0,0.2,0,0.3,0,0.5c0,0.1,0,0.2,0,0.2c1.7,0.2,3.7,0.4,6.1,0.7  c7.4,0.9,14.2,2.1,14.3,0.9C54.7,28.9,47.5,28.1,40.4,27.8 M40.1,30c-2.3-0.5-4.3-1-5.9-1.4c0,0.2-0.1,0.5-0.2,0.7  c1.6,0.5,3.5,1.1,5.8,1.8c7.2,2.2,13.6,4.5,14,3.3C54,33.6,47,31.6,40.1,30 M39.4,32.2c-2.2-0.9-4-1.7-5.6-2.4  c-0.1,0.2-0.2,0.4-0.3,0.6c1.5,0.8,3.3,1.7,5.4,2.7c6.7,3.4,12.6,6.8,13.2,5.7C52.4,38.1,45.9,35,39.4,32.2"></path>	<path class="st2" d="M21.8,31.4c-0.1-0.2-0.3-0.4-0.4-0.6c-1.4,0.9-3.1,2-5,3.3C10.4,38.1,4.5,42.3,5,43c0.7,1,6-3.4,12-7.9  C18.9,33.6,20.4,32.4,21.8,31.4 M20.7,29.3c-0.1-0.2-0.1-0.5-0.2-0.7c-1.7,0.4-3.6,0.9-5.9,1.4c-7,1.6-13.9,3.6-13.7,4.4  c0.4,1.2,6.8-1.1,14-3.3C17.2,30.3,19.1,29.8,20.7,29.3 M21.1,30.4c-0.1-0.2-0.2-0.4-0.3-0.6c-1.5,0.7-3.4,1.5-5.6,2.4  c-6.6,2.8-13.1,6-12.7,6.7c0.6,1.1,6.5-2.3,13.2-5.7C17.9,32.1,19.6,31.2,21.1,30.4 M26.8,34.2c-0.1,0-0.3,0-0.4,0  c-0.2,1.6-0.4,3.6-0.7,5.8c-0.9,7.1-1.4,14.3-0.6,14.4c1.2,0.1,1.3-6.8,1.6-14.3c0.1-2.3,0.2-4.2,0.3-5.9  C27,34.2,26.9,34.2,26.8,34.2 M14.4,28.8c2.4-0.3,4.4-0.5,6.1-0.7c0-0.2,0-0.5,0-0.7c-1.7,0.1-3.7,0.2-6.1,0.4  C7.1,28.1-0.1,28.9,0,29.7C0.2,30.9,6.9,29.8,14.4,28.8 M24.7,33.7c-0.2-0.1-0.4-0.2-0.6-0.3c-0.7,1.5-1.6,3.2-2.7,5.3  c-3.2,6.4-6.2,13-5.4,13.3c1.1,0.5,3.5-5.9,6.4-12.9C23.3,37,24,35.2,24.7,33.7 M22.6,32.4c-0.2-0.2-0.3-0.3-0.5-0.5  c-1.2,1.2-2.6,2.5-4.4,4.1c-5.2,4.9-10.3,10.1-9.7,10.6c0.9,0.8,5.3-4.4,10.4-9.9C20.1,35,21.5,33.6,22.6,32.4 M25.2,33.9  c-0.5,1.6-1,3.5-1.7,5.7c-2.1,6.8-3.8,13.9-3,14c1.2,0.3,2.4-6.5,4.1-13.8c0.5-2.3,1-4.1,1.3-5.7C25.6,34,25.4,34,25.2,33.9   M23.6,33.1c-0.2-0.1-0.4-0.3-0.6-0.4c-1,1.3-2.2,2.9-3.6,4.8c-4.3,5.7-8.3,11.7-7.7,12.2c1,0.7,4.5-5.2,8.6-11.5  C21.6,36.2,22.7,34.5,23.6,33.1"></path>	<path class="st3" d="M49.7,11.4c-0.7-1-6,3.4-12,7.9c-1.9,1.4-3.5,2.6-4.8,3.6c0.1,0.2,0.3,0.4,0.4,0.6c1.4-0.9,3.1-2,5-3.3  C44.3,16.3,50.2,12.1,49.7,11.4 M53.8,20c-0.4-1.2-6.8,1.1-14,3.3c-2.3,0.7-4.2,1.3-5.8,1.8c0.1,0.2,0.1,0.5,0.2,0.7  c1.7-0.4,3.6-0.9,5.9-1.4C47,22.8,54,20.8,53.8,20 M52.1,15.5c-0.6-1.1-6.5,2.3-13.2,5.7c-2.1,1.1-3.9,2-5.4,2.7  c0.1,0.2,0.2,0.4,0.3,0.6c1.5-0.7,3.4-1.5,5.6-2.4C46,19.4,52.5,16.2,52.1,15.5 M42.9,4.7c-1-0.7-4.5,5.2-8.6,11.5  c-1.3,2-2.3,3.6-3.2,5c0.2,0.1,0.4,0.3,0.6,0.4c1-1.3,2.2-2.9,3.6-4.8C39.5,11.1,43.6,5.2,42.9,4.7 M46.6,7.8  c-0.9-0.8-5.3,4.4-10.4,9.9c-1.6,1.7-2.9,3.2-4.1,4.4c0.2,0.2,0.3,0.3,0.5,0.5c1.2-1.2,2.6-2.5,4.4-4.1  C42.1,13.5,47.2,8.3,46.6,7.8 M29.5,0c-1.2-0.1-1.3,6.8-1.6,14.3c-0.1,2.3-0.2,4.2-0.3,5.9c0.1,0,0.2,0,0.3,0c0.1,0,0.3,0,0.4,0  c0.2-1.6,0.4-3.6,0.7-5.8C29.8,7.3,30.3,0,29.5,0 M38.7,2.4c-1.1-0.5-3.5,5.9-6.4,12.9c-0.9,2.1-1.7,3.9-2.3,5.4  c0.2,0.1,0.4,0.2,0.6,0.3c0.7-1.5,1.6-3.2,2.7-5.3C36.5,9.3,39.5,2.7,38.7,2.4 M40.3,25.5c-2.4,0.3-4.4,0.5-6.1,0.7  c0,0.2,0,0.5,0,0.7c1.7-0.1,3.7-0.2,6.1-0.4c7.1-0.4,14.3-1.1,14.2-1.9C54.5,23.5,47.7,24.6,40.3,25.5 M34.2,0.8  c-1.2-0.3-2.4,6.5-4.1,13.8c-0.5,2.3-1,4.1-1.3,5.7c0.2,0.1,0.5,0.1,0.7,0.2c0.5-1.6,1-3.5,1.7-5.7C33.3,8,35,1,34.2,0.8"></path>	<path class="st1" d="M11.8,4.7c-0.7,0.4,3.4,6.4,7.7,12.2c1.4,1.9,2.6,3.4,3.6,4.8c0.2-0.1,0.4-0.3,0.6-0.4c-0.9-1.4-2-3-3.2-5  C16.2,10,12.8,4.1,11.8,4.7 M15.9,2.4c-0.7,0.3,2.2,6.9,5.4,13.3c1,2.1,1.9,3.8,2.7,5.3c0.2-0.1,0.4-0.2,0.6-0.3  c-0.6-1.5-1.4-3.3-2.3-5.4C19.4,8.3,17,1.9,15.9,2.4 M8.1,7.8c-0.6,0.5,4.4,5.7,9.7,10.6c1.7,1.6,3.1,3,4.3,4.1  c0.2-0.2,0.3-0.3,0.5-0.5c-1.1-1.2-2.5-2.6-4.1-4.4C13.4,12.1,9,6.9,8.1,7.8 M20.4,0.8c-0.8,0.2,1,7.2,3,14  c0.7,2.2,1.2,4.1,1.7,5.7c0.2-0.1,0.5-0.1,0.7-0.2c-0.4-1.6-0.8-3.5-1.3-5.7C22.8,7.2,21.6,0.5,20.4,0.8 M26.8,14.3  C26.4,6.8,26.3-0.1,25.1,0c-0.8,0-0.3,7.3,0.6,14.4c0.3,2.3,0.5,4.2,0.7,5.8c0.2,0,0.5-0.1,0.7-0.1C27,18.5,26.9,16.6,26.8,14.3   M0.9,20c-0.2,0.8,6.7,2.8,13.7,4.4c2.3,0.5,4.3,1,5.9,1.4c0-0.2,0.1-0.5,0.2-0.7c-1.6-0.5-3.5-1.1-5.8-1.8  C7.7,21.1,1.2,18.8,0.9,20 M0,24.7c-0.1,0.8,7.1,1.6,14.2,1.9c2.4,0.1,4.4,0.3,6.1,0.4c0-0.2,0-0.3,0-0.5c0-0.1,0-0.2,0-0.2  c-1.7-0.2-3.7-0.4-6.1-0.7C6.9,24.6,0.2,23.5,0,24.7 M2.6,15.5c-0.4,0.7,6.1,3.9,12.7,6.7c2.2,0.9,4,1.7,5.6,2.4  c0.1-0.2,0.2-0.4,0.3-0.6c-1.5-0.8-3.3-1.7-5.4-2.7C9.1,17.8,3.1,14.4,2.6,15.5 M5,11.4c-0.5,0.6,5.4,4.9,11.4,8.8  c2,1.3,3.6,2.4,5,3.3c0.1-0.2,0.3-0.4,0.4-0.6c-1.3-1-2.9-2.2-4.8-3.6C11,14.8,5.7,10.4,5,11.4"></path></g></svg>